<svg width="40" height="41" viewBox="0 0 40 41" fill="none" xmlns="http://www.w3.org/2000/svg">
<circle cx="20" cy="20.5" r="20" fill="#3965D7"/>
<path d="M19.0215 30.2773V28.6758C15.9453 28.5098 14.002 26.9375 13.9238 24.0859H16.7754C16.8633 25.3359 17.7422 26.0488 19.0215 26.1953V22.5039L18.1426 22.2891C15.7598 21.7031 14.2949 20.5117 14.2949 18.4414C14.2949 16.0391 16.2578 14.3984 19.0215 14.1836V12.582H20.1543V14.1836C22.9961 14.3594 24.8418 16.0391 24.8809 18.4023H22.0684C21.9707 17.4355 21.2773 16.8008 20.1543 16.6445V20.1406L20.8379 20.3164C23.2598 20.8633 25.0762 22.0938 25.0762 24.457C25.0762 26.918 23.2598 28.5098 20.1543 28.6758V30.2773H19.0215ZM17.3027 18.2461C17.2832 19.1055 18.0547 19.5742 19.0215 19.8477V16.6641C17.918 16.8301 17.3223 17.4453 17.3027 18.2461ZM20.1543 26.1953C21.3555 26.0391 22.1074 25.375 22.1074 24.457C22.1074 23.5977 21.4043 23.1484 20.1543 22.7773V26.1953Z" fill="white"/>
</svg>
