<svg width="40" height="41" viewBox="0 0 40 41" fill="none" xmlns="http://www.w3.org/2000/svg">
<circle cx="20" cy="20.5" r="20" fill="#F8C440"/>
<path d="M17.752 24.0469C17.7715 21.625 18.416 20.8633 19.5879 20.1406C20.4277 19.5938 21.0723 18.9883 21.0723 18.0898C21.0723 17.1133 20.3105 16.4688 19.373 16.4688C18.4551 16.4688 17.6152 17.0742 17.5762 18.2266H14.8027C14.8613 15.4727 16.8926 14.1641 19.3926 14.1641C22.1074 14.1641 24.041 15.5898 24.041 17.9922C24.041 19.5938 23.2207 20.6289 21.9316 21.3906C20.8379 22.0547 20.3496 22.6797 20.3301 24.0469V24.2617H17.752V24.0469ZM19.0996 28.6758C18.1816 28.6758 17.4395 27.9336 17.459 27.0352C17.4395 26.1367 18.1816 25.4141 19.0996 25.4141C19.959 25.4141 20.7207 26.1367 20.7207 27.0352C20.7207 27.9336 19.959 28.6758 19.0996 28.6758Z" fill="white"/>
</svg>
