<svg width="53" height="31" viewBox="0 0 53 31" fill="none" xmlns="http://www.w3.org/2000/svg">
<rect y="0.5" width="53" height="30" rx="5" fill="#F2F4F6"/>
<path d="M21.5615 14.2031V15.7012H26.1064V16.8311H15.6455V15.7012H20.165V14.2031H21.5615ZM21.5742 10.7754C21.5742 12.1719 23.1104 13.4414 25.5098 13.7461L24.9639 14.8506C23.0786 14.5586 21.5806 13.708 20.8506 12.502C20.1143 13.708 18.6162 14.5586 16.7246 14.8506L16.2168 13.7461C18.5781 13.4414 20.1396 12.1465 20.1396 10.7754V10.3438H21.5742V10.7754ZM20.8633 17.5801C23.3516 17.5801 24.8242 18.3037 24.8369 19.5986C24.8242 20.8936 23.3516 21.6172 20.8633 21.6172C18.3623 21.6172 16.8643 20.8936 16.8643 19.5986C16.8643 18.3037 18.3623 17.5801 20.8633 17.5801ZM20.8633 18.6592C19.1748 18.6592 18.2861 18.9639 18.2988 19.5986C18.2861 20.2334 19.1748 20.5508 20.8633 20.5508C22.5137 20.5508 23.415 20.2334 23.4277 19.5986C23.415 18.9639 22.5137 18.6592 20.8633 18.6592ZM36.085 10.7119V11.6006C36.085 12.4893 36.085 13.5049 35.8057 14.8633H37.3672V16.0059H26.8809V14.8633H34.3838C34.6504 13.6255 34.6758 12.6797 34.6758 11.8418H28.1758V10.7119H36.085ZM36.0723 17.3389V21.4902H28.1377V17.3389H36.0723ZM29.5215 18.4434V20.3477H34.6758V18.4434H29.5215Z" fill="#8790A2"/>
</svg>
