<svg width="40" height="41" viewBox="0 0 40 41" fill="none" xmlns="http://www.w3.org/2000/svg">
<circle cx="20" cy="20.5" r="20" fill="#FF6161"/>
<path d="M14.3145 28.5L12.8691 22.3672H10.7207V20.4922H12.4199L10.9746 14.3594H13.6699L14.9395 20.4922H16.834L18.2402 14.3594H20.7598L22.166 20.4922H24.0801L25.3301 14.3594H28.0254L26.5801 20.4922H28.2793V22.3672H26.1309L24.6855 28.5H21.834L20.4473 22.3672H18.5723L17.166 28.5H14.3145ZM15.3301 22.3672L15.7793 24.5742H15.8965L16.4043 22.3672H15.3301ZM19.002 20.4922H20.0176L19.5488 18.4609H19.4512L19.002 20.4922ZM22.5957 22.3672L23.1035 24.5938H23.2207L23.6895 22.3672H22.5957Z" fill="white"/>
</svg>
